<svg width="94" height="78" viewBox="0 0 94 78" fill="none" xmlns="http://www.w3.org/2000/svg">
<path d="M44.4024 12.2719L43.8874 11.7403V11.7403L44.4024 12.2719ZM51.2978 12.2995L50.7785 12.8269V12.8269L51.2978 12.2995ZM69.3577 30.8137C69.7665 30.8105 70.0953 30.4766 70.0921 30.0678L70.04 23.4066C70.0368 22.9978 69.7029 22.6691 69.2941 22.6722C68.8853 22.6754 68.5565 23.0094 68.5597 23.4182L68.606 29.3393L62.6849 29.3855C62.2762 29.3887 61.9474 29.7227 61.9506 30.1315C61.9538 30.5402 62.2877 30.869 62.6965 30.8658L69.3577 30.8137ZM13.2585 53.1909L13.2585 53.9311V53.9311L13.2585 53.1909ZM10.0326 44.5228L10.5165 45.0828L10.0326 44.5228ZM24.4233 32.7808C24.453 32.3731 24.1466 32.0185 23.7389 31.9888L17.0952 31.504C16.6875 31.4743 16.3328 31.7807 16.3031 32.1884C16.2734 32.5961 16.5797 32.9507 16.9874 32.9804L22.893 33.4113L22.4621 39.3169C22.4324 39.7246 22.7388 40.0792 23.1465 40.1089C23.5542 40.1387 23.9088 39.8323 23.9385 39.4246L24.4233 32.7808ZM26.0289 30.0736L26.5439 30.6052L44.9175 12.8035L44.4024 12.2719L43.8874 11.7403L25.5139 29.542L26.0289 30.0736ZM51.2978 12.2995L50.7785 12.8269L68.8327 30.6011L69.3519 30.0736L69.8712 29.5462L51.817 11.772L51.2978 12.2995ZM45.4641 53.1909L45.4641 52.4508L13.2585 52.4508L13.2585 53.1909L13.2585 53.9311L45.4641 53.9311L45.4641 53.1909ZM10.0326 44.5228L10.5165 45.0828L24.169 33.287L23.6851 32.727L23.2012 32.1669L9.54867 43.9627L10.0326 44.5228ZM13.2585 53.1909L13.2585 52.4508C9.37278 52.4508 7.57615 47.6233 10.5165 45.0828L10.0326 44.5228L9.54867 43.9627C5.57061 47.3997 8.00132 53.9311 13.2585 53.9311L13.2585 53.1909ZM44.4024 12.2719L44.9175 12.8035C46.5534 11.2185 49.1553 11.2289 50.7785 12.8269L51.2978 12.2995L51.817 11.772C49.6209 9.61 46.1007 9.59594 43.8874 11.7403L44.4024 12.2719Z" fill="black"/>
<path d="M83.6308 44.8172L84.164 44.3039V44.3039L83.6308 44.8172ZM80.0787 53.1738L80.0783 52.4336V52.4336L80.0787 53.1738ZM48.7931 52.6676C48.5043 52.9569 48.5045 53.4255 48.7937 53.7144L53.5066 58.4221C53.7959 58.711 54.2645 58.7108 54.5534 58.4216C54.8423 58.1323 54.842 57.6637 54.5528 57.3748L50.3635 53.1902L54.5482 49.0009C54.8371 48.7117 54.8368 48.243 54.5476 47.9541C54.2584 47.6652 53.7898 47.6655 53.5009 47.9547L48.7931 52.6676ZM71.6596 32.3821L71.1264 32.8954L83.0976 45.3306L83.6308 44.8172L84.164 44.3039L72.1928 31.8687L71.6596 32.3821ZM80.0787 53.1738L80.0783 52.4336L49.3164 52.4506L49.3168 53.1907L49.3172 53.9309L80.0791 53.914L80.0787 53.1738ZM83.6308 44.8172L83.0976 45.3306C85.6617 47.9941 83.7755 52.4316 80.0783 52.4336L80.0787 53.1738L80.0791 53.914C85.0812 53.9112 87.6332 47.9075 84.164 44.3039L83.6308 44.8172Z" fill="black"/>
<path d="M42.9238 27.9241C44.5951 27.7391 46.2748 28.194 47.624 29.1976L47.7158 29.2659L47.8076 29.1985C49.0883 28.2523 50.666 27.7967 52.2539 27.9153C53.8419 28.0341 55.3351 28.7188 56.4609 29.845C57.0788 30.4625 57.5689 31.1963 57.9033 32.0032C58.2376 32.8101 58.4101 33.6748 58.4102 34.5482C58.4102 35.4217 58.2377 36.2871 57.9033 37.0941C57.5689 37.9009 57.0787 38.6339 56.4609 39.2513L48.377 47.3353C48.2905 47.4225 48.1876 47.4921 48.0742 47.5394C47.9608 47.5866 47.8387 47.6107 47.7158 47.6107C47.593 47.6106 47.4708 47.5866 47.3574 47.5394C47.2441 47.4921 47.1412 47.4224 47.0547 47.3353L38.9707 39.2513L38.7529 39.0237C37.6928 37.8664 37.0734 36.3683 37.0117 34.7933C36.946 33.1131 37.5193 31.47 38.6162 30.1956C39.7132 28.9212 41.2525 28.1092 42.9238 27.9241ZM43.6455 29.7552C42.7007 29.7625 41.779 30.0494 40.9961 30.5784C40.2132 31.1075 39.6033 31.8558 39.2441 32.7298C38.885 33.6038 38.7919 34.5648 38.9766 35.4915C39.1612 36.418 39.6157 37.2693 40.2822 37.9388L40.2832 37.9398L47.6074 45.2523L47.7168 45.3616L47.8252 45.2523L55.0654 37.929L55.0684 37.9319V37.931L55.0693 37.9319L55.1143 37.8802L55.1123 37.8782C55.8855 36.9747 56.2968 35.8166 56.2617 34.6263C56.2259 33.4129 55.7307 32.2587 54.876 31.3968C54.0211 30.5348 52.8703 30.0295 51.6572 29.9837C50.5199 29.9409 49.4071 30.3044 48.5166 31.0052L48.3418 31.1487L48.333 31.1575C48.2465 31.2447 48.1436 31.3144 48.0303 31.3616C47.917 31.4088 47.7955 31.4329 47.6729 31.4329C47.55 31.4329 47.4279 31.4089 47.3145 31.3616C47.2011 31.3144 47.0982 31.2447 47.0117 31.1575C46.1204 30.2631 44.9101 29.7583 43.6475 29.7552H43.6455Z" fill="#A6D0FF" stroke="black" stroke-width="0.308231"/>
</svg>
